<svg xmlns="http://www.w3.org/2000/svg" viewBox="0 0 900 800" role="img" aria-label="France avec Île-de-France en foncé">
  <defs><style>
    .fr { fill:#ECEFF3; stroke:#CBD5E1; stroke-width:4 }
    .idf { fill:#374151; stroke:#111827; stroke-width:3 }
  </style></defs>
  <!-- France silhouette (simplified but clean) -->
  <path class="fr" d="M210 240l65-50 85 12 25-28 70 8 30-24 60 18 34 34 50-7 30 20 18 48 40 28 12 40-28 30 9 38-26 32-42 7-22 36-46 8-30 30-52-7-38 13-48-13-24-24-38 2-32-24-13-36-30-15 9-38-13-32 22-34z"/>
  <!-- Île-de-France approx -->
  <ellipse class="idf" cx="500" cy="360" rx="48" ry="36"/>
</svg>